<?xml version="1.0" encoding="UTF-8"?>
<svg width="430px" height="495px" viewBox="0 0 430 495" version="1.1" xmlns="http://www.w3.org/2000/svg" xmlns:xlink="http://www.w3.org/1999/xlink">
    <!-- Generator: Sketch 46.2 (44496) - http://www.bohemiancoding.com/sketch -->
    <title>logo</title>
    <desc>Created with Sketch.</desc>
    <defs></defs>
    <g id="Page-1" stroke="none" stroke-width="1" fill="none" fill-rule="evenodd">
        <g id="Prolific-Digital-Logos" transform="translate(-88.000000, -85.000000)" fill="#FFFFFE">
            <g id="logo" transform="translate(88.000000, 85.000000)">
                <path d="M50.01,62.04 C61.73,62.04 68.86,55.926 68.86,46.583 L68.86,46.245 C68.86,36.054 61.73,30.619 49.84,30.619 L34.384,30.619 L34.384,62.04 L50.01,62.04 Z M1.435,2.935 L52.39,2.935 C82.45,2.935 101.81,18.39 101.81,44.716 L101.81,45.054 C101.81,73.079 80.24,87.857 50.69,87.857 L34.384,87.857 L34.384,121.827 L1.435,121.827 L1.435,2.935 L1.435,2.935 Z" id="Fill-11"></path>
                <path d="M204.21,60.001 C215.42,60.001 221.87,54.566 221.87,45.906 L221.87,45.566 C221.87,36.224 215.08,31.468 204.04,31.468 L182.47,31.468 L182.47,60.001 L204.21,60.001 Z M149.52,2.935 L205.74,2.935 C223.91,2.935 236.48,7.689 244.46,15.842 C251.43,22.637 254.99,31.808 254.99,43.526 L254.99,43.867 C254.99,62.04 245.31,74.099 230.54,80.384 L258.9,121.827 L220.86,121.827 L196.91,85.818 L182.47,85.818 L182.47,121.827 L149.52,121.827 L149.52,2.935 L149.52,2.935 Z" id="Fill-12"></path>
                <path d="M395.78,62.718 L395.78,62.38 C395.78,45.226 383.38,30.279 365.21,30.279 C347.2,30.279 335.14,44.886 335.14,62.04 L335.14,62.38 C335.14,79.535 347.54,94.48 365.54,94.48 C383.72,94.48 395.78,79.874 395.78,62.718 Z M301.34,62.718 L301.34,62.38 C301.34,28.242 328.86,0.556 365.54,0.556 C402.23,0.556 429.41,27.901 429.41,62.04 L429.41,62.38 C429.41,96.519 401.89,124.203 365.21,124.203 C328.52,124.203 301.34,96.859 301.34,62.718 L301.34,62.718 Z" id="Fill-13"></path>
                <polyline id="Fill-14" points="1.435 188.206 34.384 188.206 34.384 278.224 91.96 278.224 91.96 307.099 1.435 307.099 1.435 188.206"></polyline>
                <polyline id="Fill-15" points="220.83 188.206 256.96 188.206 195.14 307.099 159.02 307.099 220.83 188.206"></polyline>
                <polyline id="Fill-16" points="317.82 188.206 412.93 188.206 412.93 217.081 350.77 217.081 350.77 237.292 406.99 237.292 406.99 264.637 350.77 264.637 350.77 307.099 317.82 307.099 317.82 188.206"></polyline>
                <polyline id="Fill-17" points="62.26 373.48 98.38 373.48 36.567 492.372 0.446 492.372 62.26 373.48"></polyline>
                <path d="M147.23,433.265 L147.23,432.927 C147.23,398.277 173.89,371.103 209.9,371.103 C234.19,371.103 249.81,381.294 260.34,395.9 L235.55,415.093 C228.75,406.599 220.94,401.165 209.56,401.165 C192.92,401.165 181.2,415.263 181.2,432.587 L181.2,432.927 C181.2,450.761 192.92,464.687 209.56,464.687 C221.96,464.687 229.26,458.911 236.4,450.251 L261.19,467.913 C249.98,483.37 234.87,494.749 208.54,494.749 C174.57,494.749 147.23,468.763 147.23,433.265" id="Fill-18"></path>
            </g>
        </g>
    </g>
</svg>